<svg width="512" height="512" viewBox="0 0 512 512" xmlns="http://www.w3.org/2000/svg">
  <rect width="512" height="512" rx="112" fill="#0c0c0e"/>
  <circle cx="256" cy="256" r="160" fill="none" stroke="white" stroke-width="2" opacity="0.15"/>
  <circle cx="256" cy="256" r="130" fill="none" stroke="white" stroke-width="2" opacity="0.2"/>
  <circle cx="256" cy="256" r="100" fill="none" stroke="white" stroke-width="3" opacity="0.35"/>
  <circle cx="256" cy="256" r="68" fill="none" stroke="white" stroke-width="3" opacity="0.5"/>
  <line x1="256" y1="156" x2="256" y2="190" stroke="white" stroke-width="3" opacity="0.6"/>
  <line x1="256" y1="322" x2="256" y2="356" stroke="white" stroke-width="3" opacity="0.6"/>
  <line x1="156" y1="256" x2="190" y2="256" stroke="white" stroke-width="3" opacity="0.6"/>
  <line x1="322" y1="256" x2="356" y2="256" stroke="white" stroke-width="3" opacity="0.6"/>
  <line x1="180" y1="180" x2="202" y2="202" stroke="white" stroke-width="2" opacity="0.3"/>
  <line x1="310" y1="310" x2="332" y2="332" stroke="white" stroke-width="2" opacity="0.3"/>
  <line x1="332" y1="180" x2="310" y2="202" stroke="white" stroke-width="2" opacity="0.3"/>
  <line x1="202" y1="310" x2="180" y2="332" stroke="white" stroke-width="2" opacity="0.3"/>
  <circle cx="256" cy="256" r="36" fill="rgba(255,255,255,0.06)"/>
  <circle cx="256" cy="256" r="36" fill="none" stroke="white" stroke-width="3" opacity="0.85"/>
  <circle cx="256" cy="256" r="12" fill="white" opacity="0.95"/>
  <circle cx="256" cy="156" r="5" fill="white" opacity="0.7"/>
  <circle cx="256" cy="356" r="5" fill="white" opacity="0.7"/>
  <circle cx="156" cy="256" r="5" fill="white" opacity="0.7"/>
  <circle cx="356" cy="256" r="5" fill="white" opacity="0.7"/>
</svg>
